<svg xmlns="http://www.w3.org/2000/svg" viewBox="0 0 640 640" width="640" height="640" shape-rendering="crispEdges" xmlns:c2pa="http://c2pa.org/manifest"><metadata><c2pa:manifest>AAAWgmp1bWIAAAAeanVtZGMycGEAEQAQgAAAqgA4m3EDYzJwYQAAABZcanVtYgAAAEdqdW1kYzJtYQARABCAAACqADibcQN1cm46YzJwYTpmMDdkYjVmNC1jZDhhLTRhZTEtYTVhZS1hOTlhNzZiZGI0NmIAAAADl2p1bWIAAAApanVtZGMyYXMAEQAQgAAAqgA4m3EDYzJwYS5hc3NlcnRpb25zAAAAALxqdW1iAAAARGp1bWRjYm9yABEAEIAAAKoAOJtxE2MycGEuaW5ncmVkaWVudC52MwAAAAAYYzJzaKcoExn8lXh4+vod5IRmAWUAAABwY2JvcqNpZGM6Zm9ybWF0bWltYWdlL3N2Zyt4bWxqaW5zdGFuY2VJRHgseG1wOmlpZDphZTNmOTI2Zi1lNTlhLTQ2YWMtOWEyZC05OThhYjA5YzAyZDFscmVsYXRpb25zaGlwaHBhcmVudE9mAAAB4mp1bWIAAABBanVtZGNib3IAEQAQgAAAqgA4m3ETYzJwYS5hY3Rpb25zLnYyAAAAABhjMnNo1qb60dNuoWLOgzN/BqkFaQAAAZljYm9yomdhY3Rpb25zgqJmYWN0aW9ua2MycGEub3BlbmVkanBhcmFtZXRlcnOha2luZ3JlZGllbnRzgaJjdXJseC1zZWxmI2p1bWJmPWMycGEuYXNzZXJ0aW9ucy9jMnBhLmluZ3JlZGllbnQudjNkaGFzaFggjPBkU0WOjGK3yjwhvQCfsv0oYqAX+dNnc5RrZp/bC7OkZmFjdGlvbngdY29tLmFudGhyb3BpYy5jbGF1ZGUucHJvdmlkZWRqcGFyYW1ldGVyc6F4H2NvbS5hbnRocm9waWMub3JpZ2luLWNvbmZpZGVuY2VndW5rbm93bmtkZXNjcmlwdGlvbnhmQ2xhdWRlIHByb3ZpZGVkIHRoaXMgZmlsZSBhdCB0aGUgcmVxdWVzdCBvZiBhIHVzZXIgYW5kIG1heSBoYXZlIGNyZWF0ZWQgb3IgbW9kaWZpZWQgdGhlIGZpbGUgY29udGVudHMubXNvZnR3YXJlQWdlbnShZG5hbWVmQ2xhdWRlcmFsbEFjdGlvbnNJbmNsdWRlZPUAAADIanVtYgAAAEBqdW1kY2JvcgARABCAAACqADibcRNjMnBhLmhhc2guZGF0YQAAAAAYYzJzaMHi1Ik/vips0k88DU6u9eIAAACAY2JvcqVjYWxnZnNoYTI1NmNwYWRNAAAAAAAAAAAAAAAAAGRoYXNoWCB16OcvXO7sezvVPEhUgwJymuM6kvWMQTppYI8UHDMo8GRuYW1lbmp1bWJmIG1hbmlmZXN0amV4Y2x1c2lvbnOBomVzdGFydBizZmxlbmd0aBkeBAAAAj5qdW1iAAAAJ2p1bWRjMmNsABEAEIAAAKoAOJtxA2MycGEuY2xhaW0udjIAAAACD2Nib3KlY2FsZ2ZzaGEyNTZpc2lnbmF0dXJleE1zZWxmI2p1bWJmPS9jMnBhL3VybjpjMnBhOmYwN2RiNWY0LWNkOGEtNGFlMS1hNWFlLWE5OWE3NmJkYjQ2Yi9jMnBhLnNpZ25hdHVyZWppbnN0YW5jZUlEeCx4bXA6aWlkOjJhNDAzMDUzLTVlMzktNDc2OS05ZjBiLWQ2NzEyNTFiYmI4YnJjcmVhdGVkX2Fzc2VydGlvbnODomN1cmx4LXNlbGYjanVtYmY9YzJwYS5hc3NlcnRpb25zL2MycGEuaW5ncmVkaWVudC52M2RoYXNoWCCM8GRTRY6MYrfKPCG9AJ+y/ShioBf502dzlGtmn9sLs6JjdXJseCpzZWxmI2p1bWJmPWMycGEuYXNzZXJ0aW9ucy9jMnBhLmFjdGlvbnMudjJkaGFzaFggFMhZHd/wLtx7vawB9B0IM+BJ5/PCocilthI2SO4D0+uiY3VybHgpc2VsZiNqdW1iZj1jMnBhLmFzc2VydGlvbnMvYzJwYS5oYXNoLmRhdGFkaGFzaFggvTUBFNJBKxmArOgE/BXP/KzzXbL30paLtfS7azcN6yZ0Y2xhaW1fZ2VuZXJhdG9yX2luZm+jZG5hbWVvQW50aHJvcGljIEZpbGVzZ3ZlcnNpb25lMS4wLjBrc3BlY1ZlcnNpb25lMi40LjAAABA4anVtYgAAAChqdW1kYzJjcwARABCAAACqADibcQNjMnBhLnNpZ25hdHVyZQAAABAIY2JvctKEWQISogEmGCFZAgowggIGMIIBjaADAgECAhRA5aAK7sI50L64g/oGQgU9Z1UTADAKBggqhkjOPQQDAzBJMRcwFQYDVQQKEw5BbnRocm9waWMsIFBCQzEuMCwGA1UEAxMlQW50aHJvcGljIENvbnRlbnQgQ3JlZGVudGlhbHMgUm9vdCBDQTAeFw0yNjA4MDcxODQzNTZaFw0yODA4MDYxOTQzNTZaMEQxFzAVBgNVBAoTDkFudGhyb3BpYywgUEJDMSkwJwYDVQQDEyBBbnRocm9waWMgQ2xhdWRlIENvbnRlbnQgU2lnbmluZzBZMBMGByqGSM49AgEGCCqGSM49AwEHA0IABJh6CmvLUBgFFNU0vUKlOVtE6djd17L5SuwX0LemFisBM3dkd/3cyjxFA3Qo5S46fX0/ihY0VZ7mfb9KF703t5OjWDBWMA4GA1UdDwEB/wQEAwIHgDAVBgNVHSUEDjAMBgorBgEEAYPoXgIBMAwGA1UdEwEB/wQCMAAwHwYDVR0jBBgwFoAUzlHiBIFOZFsj+OPEz5o+nMHXXMIwCgYIKoZIzj0EAwMDZwAwZAIwMXMdFJ4BetLLVY7ORuE9noqbbAZOZn/aArXyTwFAZfKrPzxF2vPoJNf1+UCdg1XGAjBwX1zd9WGqYkqmL5SFqw1QySjr1zJfpJM9+1rdDwSPLMOPOjKuiXjoU/pUUeG9RwmhY3BhZFkNngAAAAAAAAAAAAAAAAAAAAAAAAAAAAAAAAAAAAAAAAAAAAAAAAAAAAAAAAAAAAAAAAAAAAAAAAAAAAAAAAAAAAAAAAAAAAAAAAAAAAAAAAAAAAAAAAAAAAAAAAAAAAAAAAAAAAAAAAAAAAAAAAAAAAAAAAAAAAAAAAAAAAAAAAAAAAAAAAAAAAAAAAAAAAAAAAAAAAAAAAAAAAAAAAAAAAAAAAAAAAAAAAAAAAAAAAAAAAAAAAAAAAAAAAAAAAAAAAAAAAAAAAAAAAAAAAAAAAAAAAAAAAAAAAAAAAAAAAAAAAAAAAAAAAAAAAAAAAAAAAAAAAAAAAAAAAAAAAAAAAAAAAAAAAAAAAAAAAAAAAAAAAAAAAAAAAAAAAAAAAAAAAAAAAAAAAAAAAAAAAAAAAAAAAAAAAAAAAAAAAAAAAAAAAAAAAAAAAAAAAAAAAAAAAAAAAAAAAAAAAAAAAAAAAAAAAAAAAAAAAAAAAAAAAAAAAAAAAAAAAAAAAAAAAAAAAAAAAAAAAAAAAAAAAAAAAAAAAAAAAAAAAAAAAAAAAAAAAAAAAAAAAAAAAAAAAAAAAAAAAAAAAAAAAAAAAAAAAAAAAAAAAAAAAAAAAAAAAAAAAAAAAAAAAAAAAAAAAAAAAAAAAAAAAAAAAAAAAAAAAAAAAAAAAAAAAAAAAAAAAAAAAAAAAAAAAAAAAAAAAAAAAAAAAAAAAAAAAAAAAAAAAAAAAAAAAAAAAAAAAAAAAAAAAAAAAAAAAAAAAAAAAAAAAAAAAAAAAAAAAAAAAAAAAAAAAAAAAAAAAAAAAAAAAAAAAAAAAAAAAAAAAAAAAAAAAAAAAAAAAAAAAAAAAAAAAAAAAAAAAAAAAAAAAAAAAAAAAAAAAAAAAAAAAAAAAAAAAAAAAAAAAAAAAAAAAAAAAAAAAAAAAAAAAAAAAAAAAAAAAAAAAAAAAAAAAAAAAAAAAAAAAAAAAAAAAAAAAAAAAAAAAAAAAAAAAAAAAAAAAAAAAAAAAAAAAAAAAAAAAAAAAAAAAAAAAAAAAAAAAAAAAAAAAAAAAAAAAAAAAAAAAAAAAAAAAAAAAAAAAAAAAAAAAAAAAAAAAAAAAAAAAAAAAAAAAAAAAAAAAAAAAAAAAAAAAAAAAAAAAAAAAAAAAAAAAAAAAAAAAAAAAAAAAAAAAAAAAAAAAAAAAAAAAAAAAAAAAAAAAAAAAAAAAAAAAAAAAAAAAAAAAAAAAAAAAAAAAAAAAAAAAAAAAAAAAAAAAAAAAAAAAAAAAAAAAAAAAAAAAAAAAAAAAAAAAAAAAAAAAAAAAAAAAAAAAAAAAAAAAAAAAAAAAAAAAAAAAAAAAAAAAAAAAAAAAAAAAAAAAAAAAAAAAAAAAAAAAAAAAAAAAAAAAAAAAAAAAAAAAAAAAAAAAAAAAAAAAAAAAAAAAAAAAAAAAAAAAAAAAAAAAAAAAAAAAAAAAAAAAAAAAAAAAAAAAAAAAAAAAAAAAAAAAAAAAAAAAAAAAAAAAAAAAAAAAAAAAAAAAAAAAAAAAAAAAAAAAAAAAAAAAAAAAAAAAAAAAAAAAAAAAAAAAAAAAAAAAAAAAAAAAAAAAAAAAAAAAAAAAAAAAAAAAAAAAAAAAAAAAAAAAAAAAAAAAAAAAAAAAAAAAAAAAAAAAAAAAAAAAAAAAAAAAAAAAAAAAAAAAAAAAAAAAAAAAAAAAAAAAAAAAAAAAAAAAAAAAAAAAAAAAAAAAAAAAAAAAAAAAAAAAAAAAAAAAAAAAAAAAAAAAAAAAAAAAAAAAAAAAAAAAAAAAAAAAAAAAAAAAAAAAAAAAAAAAAAAAAAAAAAAAAAAAAAAAAAAAAAAAAAAAAAAAAAAAAAAAAAAAAAAAAAAAAAAAAAAAAAAAAAAAAAAAAAAAAAAAAAAAAAAAAAAAAAAAAAAAAAAAAAAAAAAAAAAAAAAAAAAAAAAAAAAAAAAAAAAAAAAAAAAAAAAAAAAAAAAAAAAAAAAAAAAAAAAAAAAAAAAAAAAAAAAAAAAAAAAAAAAAAAAAAAAAAAAAAAAAAAAAAAAAAAAAAAAAAAAAAAAAAAAAAAAAAAAAAAAAAAAAAAAAAAAAAAAAAAAAAAAAAAAAAAAAAAAAAAAAAAAAAAAAAAAAAAAAAAAAAAAAAAAAAAAAAAAAAAAAAAAAAAAAAAAAAAAAAAAAAAAAAAAAAAAAAAAAAAAAAAAAAAAAAAAAAAAAAAAAAAAAAAAAAAAAAAAAAAAAAAAAAAAAAAAAAAAAAAAAAAAAAAAAAAAAAAAAAAAAAAAAAAAAAAAAAAAAAAAAAAAAAAAAAAAAAAAAAAAAAAAAAAAAAAAAAAAAAAAAAAAAAAAAAAAAAAAAAAAAAAAAAAAAAAAAAAAAAAAAAAAAAAAAAAAAAAAAAAAAAAAAAAAAAAAAAAAAAAAAAAAAAAAAAAAAAAAAAAAAAAAAAAAAAAAAAAAAAAAAAAAAAAAAAAAAAAAAAAAAAAAAAAAAAAAAAAAAAAAAAAAAAAAAAAAAAAAAAAAAAAAAAAAAAAAAAAAAAAAAAAAAAAAAAAAAAAAAAAAAAAAAAAAAAAAAAAAAAAAAAAAAAAAAAAAAAAAAAAAAAAAAAAAAAAAAAAAAAAAAAAAAAAAAAAAAAAAAAAAAAAAAAAAAAAAAAAAAAAAAAAAAAAAAAAAAAAAAAAAAAAAAAAAAAAAAAAAAAAAAAAAAAAAAAAAAAAAAAAAAAAAAAAAAAAAAAAAAAAAAAAAAAAAAAAAAAAAAAAAAAAAAAAAAAAAAAAAAAAAAAAAAAAAAAAAAAAAAAAAAAAAAAAAAAAAAAAAAAAAAAAAAAAAAAAAAAAAAAAAAAAAAAAAAAAAAAAAAAAAAAAAAAAAAAAAAAAAAAAAAAAAAAAAAAAAAAAAAAAAAAAAAAAAAAAAAAAAAAAAAAAAAAAAAAAAAAAAAAAAAAAAAAAAAAAAAAAAAAAAAAAAAAAAAAAAAAAAAAAAAAAAAAAAAAAAAAAAAAAAAAAAAAAAAAAAAAAAAAAAAAAAAAAAAAAAAAAAAAAAAAAAAAAAAAAAAAAAAAAAAAAAAAAAAAAAAAAAAAAAAAAAAAAAAAAAAAAAAAAAAAAAAAAAAAAAAAAAAAAAAAAAAAAAAAAAAAAAAAAAAAAAAAAAAAAAAAAAAAAAAAAAAAAAAAAAAAAAAAAAAAAAAAAAAAAAAAAAAAAAAAAAAAAAAAAAAAAAAAAAAAAAAAAAAAAAAAAAAAAAAAAAAAAAAAAAAAAAAAAAAAAAAAAAAAAAAAAAAAAAAAAAAAAAAAAAAAAAAAAAAAAAAAAAAAAAAAAAAAAAAAAAAAAAAAAAAAAAAAAAAAAAAAAAAAAAAAAAAAAAAAAAAAAAAAAAAAAAAAAAAAAAAAAAAAAAAAAAAAAAAAAAAAAAAAAAAAAAAAAAAAAAAAAAAAAAAAAAAAAAAAAAAAAAAAAAAAAAAAAAAAAAAAAAAAAAAAAAAAAAAAAAAAAAAAAAAAAAAAAAAAAAAAAAAAAAAAAAAAAAAAAAAAAAAAAAAAAAAAAAAAAAAAAAAAAAAAAAAAAAAAAAAAAAAAAAAAAAAAAAAAAAAAAAAAAAAAAAAAAAAAAAAAAAAAAAAAAAAAAAAAAAAAAAAAAAAAAAAAAAAAAAAAAAAAAAAAAAAAAAAAAAAAAAAAAAAAAAAAAAAAAAAAAAAAAAAAAAAAAAAAAAAAAAAAAAAAAAAAAAAAAAAAAAAAAAAAAAAAAAAAAAAAAAAAAAAAAAAAAAAAAAAAAAAAAAAAAAAAAAAAAAAAAAAAAAAAAAAAAAAAAAAAAAAAAAAAAAAAAAAAAAAAAAAAAAAAAAAAAAAAAAAAAAAAAAAAAAAAAAAAAAAAAAAAAAAAAAAAAAAAAAAAAAAAAAAAAAAAAAAAAAAAAAAAAAAAAAAAAAAAAAAAAAAAAAAAAAAAAAAAAAAAAAAAAAAAAAAAAAAAAAAAAAAAAAAAAAAAAAAAAAAAAAAAAAAAAAAAAAAAAAAAAAAAAAAAAAAAAAAAAAAAAAAAAAAAAAAAAAAAAAAAAAAAAAAAAAAAAAAAAAAAAAAAAAAAAAAAAAAAAAAAAAAAAAAAAAAAAAAAAAAAAAAAAAAAAAAAAAAAAAAAAAAAAAAAAAAAAAAAAAAAAAAAAAAAAAAAAAAAAAAAAAAAAAAAAAAAAAAAAAAAAAAAAAAAAAAAAAAAAAAAAAAAAAAAAAAAAAAAAAAAAAAAAAAAAAAAAAAAAAAAAAAAAAAAAAAAAAAAAAAAAAAAAAAAAAAAAAAAAAAAAAAAAAAAAAAAAAAAAAAAAAAAAAAAAAAAAAAAAAAAAAAAAAAAAAAAAAAAAAAAAAAAAAAAAAAAAAAAAAAAAAAAAAAAAAAAAAAAAAAAAAAAAAAAAAAAAAAAAAAAAAAAAAAAAAAAAAAAAAAAAAAAAAAAAAAAAAAAAAAAAAAAAAAAAAAAAAAAAAAAAAAAAAAAAAAAAAAAAAAAAAAAAAAAAAAAAAAAAAAAAAAAAAAAAAAAAAAAAAAAAAAAAAAAAAAAAAAAAAAAAAAAAAAAAAAAAAAAAAAAAAAAAAAAAAAAAAAAAAAAAAAAAAAAAAAAAAAAAAAAAAAAAAAAAAAAAAAAAAAAAAAAAAAAAAAAAAAAAAAAAAAAAAPZYQIxWnqy8SiD66SfDvL7c9nN8+GjrNEqtu4uBhNF22Rl7HVFg3rks88we2n3zVyNmf5kC23Jce6njcs3VtKGM9OU=</c2pa:manifest></metadata>
<g id="outline" fill="#A84951">
<rect x="280" y="160" width="20" height="20"/>
<rect x="300" y="160" width="20" height="20"/>
<rect x="320" y="160" width="20" height="20"/>
<rect x="340" y="160" width="20" height="20"/>
<rect x="260" y="180" width="20" height="20"/>
<rect x="360" y="180" width="20" height="20"/>
<rect x="260" y="200" width="20" height="20"/>
<rect x="360" y="200" width="20" height="20"/>
<rect x="240" y="220" width="20" height="20"/>
<rect x="260" y="220" width="20" height="20"/>
<rect x="280" y="220" width="20" height="20"/>
<rect x="300" y="220" width="20" height="20"/>
<rect x="320" y="220" width="20" height="20"/>
<rect x="340" y="220" width="20" height="20"/>
<rect x="360" y="220" width="20" height="20"/>
<rect x="380" y="220" width="20" height="20"/>
<rect x="220" y="240" width="20" height="20"/>
<rect x="400" y="240" width="20" height="20"/>
<rect x="200" y="260" width="20" height="20"/>
<rect x="420" y="260" width="20" height="20"/>
<rect x="180" y="280" width="20" height="20"/>
<rect x="440" y="280" width="20" height="20"/>
<rect x="160" y="300" width="20" height="20"/>
<rect x="460" y="300" width="20" height="20"/>
<rect x="160" y="320" width="20" height="20"/>
<rect x="460" y="320" width="20" height="20"/>
<rect x="160" y="340" width="20" height="20"/>
<rect x="460" y="340" width="20" height="20"/>
<rect x="140" y="360" width="20" height="20"/>
<rect x="480" y="360" width="20" height="20"/>
<rect x="140" y="380" width="20" height="20"/>
<rect x="160" y="380" width="20" height="20"/>
<rect x="180" y="380" width="20" height="20"/>
<rect x="200" y="380" width="20" height="20"/>
<rect x="220" y="380" width="20" height="20"/>
<rect x="240" y="380" width="20" height="20"/>
<rect x="260" y="380" width="20" height="20"/>
<rect x="280" y="380" width="20" height="20"/>
<rect x="300" y="380" width="20" height="20"/>
<rect x="320" y="380" width="20" height="20"/>
<rect x="340" y="380" width="20" height="20"/>
<rect x="360" y="380" width="20" height="20"/>
<rect x="380" y="380" width="20" height="20"/>
<rect x="400" y="380" width="20" height="20"/>
<rect x="420" y="380" width="20" height="20"/>
<rect x="440" y="380" width="20" height="20"/>
<rect x="460" y="380" width="20" height="20"/>
<rect x="480" y="380" width="20" height="20"/>
<rect x="140" y="400" width="20" height="20"/>
<rect x="480" y="400" width="20" height="20"/>
<rect x="140" y="420" width="20" height="20"/>
<rect x="480" y="420" width="20" height="20"/>
<rect x="140" y="440" width="20" height="20"/>
<rect x="160" y="440" width="20" height="20"/>
<rect x="180" y="440" width="20" height="20"/>
<rect x="200" y="440" width="20" height="20"/>
<rect x="220" y="440" width="20" height="20"/>
<rect x="240" y="440" width="20" height="20"/>
<rect x="260" y="440" width="20" height="20"/>
<rect x="280" y="440" width="20" height="20"/>
<rect x="300" y="440" width="20" height="20"/>
<rect x="320" y="440" width="20" height="20"/>
<rect x="340" y="440" width="20" height="20"/>
<rect x="360" y="440" width="20" height="20"/>
<rect x="380" y="440" width="20" height="20"/>
<rect x="400" y="440" width="20" height="20"/>
<rect x="420" y="440" width="20" height="20"/>
<rect x="440" y="440" width="20" height="20"/>
<rect x="460" y="440" width="20" height="20"/>
<rect x="480" y="440" width="20" height="20"/>
</g>
<g id="base" fill="#C4555E">
<rect x="280" y="180" width="20" height="20"/>
<rect x="300" y="180" width="20" height="20"/>
<rect x="320" y="180" width="20" height="20"/>
<rect x="340" y="180" width="20" height="20"/>
<rect x="280" y="200" width="20" height="20"/>
<rect x="300" y="200" width="20" height="20"/>
<rect x="320" y="200" width="20" height="20"/>
<rect x="340" y="200" width="20" height="20"/>
<rect x="240" y="240" width="20" height="20"/>
<rect x="260" y="240" width="20" height="20"/>
<rect x="280" y="240" width="20" height="20"/>
<rect x="300" y="240" width="20" height="20"/>
<rect x="320" y="240" width="20" height="20"/>
<rect x="340" y="240" width="20" height="20"/>
<rect x="360" y="240" width="20" height="20"/>
<rect x="380" y="240" width="20" height="20"/>
<rect x="220" y="260" width="20" height="20"/>
<rect x="240" y="260" width="20" height="20"/>
<rect x="260" y="260" width="20" height="20"/>
<rect x="280" y="260" width="20" height="20"/>
<rect x="300" y="260" width="20" height="20"/>
<rect x="320" y="260" width="20" height="20"/>
<rect x="340" y="260" width="20" height="20"/>
<rect x="360" y="260" width="20" height="20"/>
<rect x="380" y="260" width="20" height="20"/>
<rect x="400" y="260" width="20" height="20"/>
<rect x="200" y="280" width="20" height="20"/>
<rect x="220" y="280" width="20" height="20"/>
<rect x="240" y="280" width="20" height="20"/>
<rect x="260" y="280" width="20" height="20"/>
<rect x="280" y="280" width="20" height="20"/>
<rect x="300" y="280" width="20" height="20"/>
<rect x="320" y="280" width="20" height="20"/>
<rect x="340" y="280" width="20" height="20"/>
<rect x="360" y="280" width="20" height="20"/>
<rect x="380" y="280" width="20" height="20"/>
<rect x="400" y="280" width="20" height="20"/>
<rect x="420" y="280" width="20" height="20"/>
<rect x="180" y="300" width="20" height="20"/>
<rect x="200" y="300" width="20" height="20"/>
<rect x="220" y="300" width="20" height="20"/>
<rect x="240" y="300" width="20" height="20"/>
<rect x="260" y="300" width="20" height="20"/>
<rect x="280" y="300" width="20" height="20"/>
<rect x="300" y="300" width="20" height="20"/>
<rect x="320" y="300" width="20" height="20"/>
<rect x="340" y="300" width="20" height="20"/>
<rect x="360" y="300" width="20" height="20"/>
<rect x="380" y="300" width="20" height="20"/>
<rect x="400" y="300" width="20" height="20"/>
<rect x="420" y="300" width="20" height="20"/>
<rect x="440" y="300" width="20" height="20"/>
<rect x="180" y="320" width="20" height="20"/>
<rect x="200" y="320" width="20" height="20"/>
<rect x="220" y="320" width="20" height="20"/>
<rect x="240" y="320" width="20" height="20"/>
<rect x="260" y="320" width="20" height="20"/>
<rect x="280" y="320" width="20" height="20"/>
<rect x="300" y="320" width="20" height="20"/>
<rect x="320" y="320" width="20" height="20"/>
<rect x="340" y="320" width="20" height="20"/>
<rect x="360" y="320" width="20" height="20"/>
<rect x="380" y="320" width="20" height="20"/>
<rect x="400" y="320" width="20" height="20"/>
<rect x="420" y="320" width="20" height="20"/>
<rect x="440" y="320" width="20" height="20"/>
<rect x="180" y="340" width="20" height="20"/>
<rect x="200" y="340" width="20" height="20"/>
<rect x="220" y="340" width="20" height="20"/>
<rect x="240" y="340" width="20" height="20"/>
<rect x="260" y="340" width="20" height="20"/>
<rect x="280" y="340" width="20" height="20"/>
<rect x="300" y="340" width="20" height="20"/>
<rect x="320" y="340" width="20" height="20"/>
<rect x="340" y="340" width="20" height="20"/>
<rect x="360" y="340" width="20" height="20"/>
<rect x="380" y="340" width="20" height="20"/>
<rect x="400" y="340" width="20" height="20"/>
<rect x="420" y="340" width="20" height="20"/>
<rect x="440" y="340" width="20" height="20"/>
<rect x="160" y="360" width="20" height="20"/>
<rect x="180" y="360" width="20" height="20"/>
<rect x="200" y="360" width="20" height="20"/>
<rect x="220" y="360" width="20" height="20"/>
<rect x="240" y="360" width="20" height="20"/>
<rect x="260" y="360" width="20" height="20"/>
<rect x="280" y="360" width="20" height="20"/>
<rect x="300" y="360" width="20" height="20"/>
<rect x="320" y="360" width="20" height="20"/>
<rect x="340" y="360" width="20" height="20"/>
<rect x="360" y="360" width="20" height="20"/>
<rect x="380" y="360" width="20" height="20"/>
<rect x="400" y="360" width="20" height="20"/>
<rect x="420" y="360" width="20" height="20"/>
<rect x="440" y="360" width="20" height="20"/>
<rect x="460" y="360" width="20" height="20"/>
</g>
<g id="shadow" fill="#8F3E45">
<rect x="160" y="400" width="20" height="20"/>
<rect x="180" y="400" width="20" height="20"/>
<rect x="200" y="400" width="20" height="20"/>
<rect x="220" y="400" width="20" height="20"/>
<rect x="240" y="400" width="20" height="20"/>
<rect x="260" y="400" width="20" height="20"/>
<rect x="280" y="400" width="20" height="20"/>
<rect x="300" y="400" width="20" height="20"/>
<rect x="320" y="400" width="20" height="20"/>
<rect x="340" y="400" width="20" height="20"/>
<rect x="360" y="400" width="20" height="20"/>
<rect x="380" y="400" width="20" height="20"/>
<rect x="400" y="400" width="20" height="20"/>
<rect x="420" y="400" width="20" height="20"/>
<rect x="440" y="400" width="20" height="20"/>
<rect x="460" y="400" width="20" height="20"/>
<rect x="160" y="420" width="20" height="20"/>
<rect x="180" y="420" width="20" height="20"/>
<rect x="200" y="420" width="20" height="20"/>
<rect x="220" y="420" width="20" height="20"/>
<rect x="240" y="420" width="20" height="20"/>
<rect x="260" y="420" width="20" height="20"/>
<rect x="280" y="420" width="20" height="20"/>
<rect x="300" y="420" width="20" height="20"/>
<rect x="320" y="420" width="20" height="20"/>
<rect x="340" y="420" width="20" height="20"/>
<rect x="360" y="420" width="20" height="20"/>
<rect x="380" y="420" width="20" height="20"/>
<rect x="400" y="420" width="20" height="20"/>
<rect x="420" y="420" width="20" height="20"/>
<rect x="440" y="420" width="20" height="20"/>
<rect x="460" y="420" width="20" height="20"/>
</g>
</svg>