<svg xmlns="http://www.w3.org/2000/svg" viewBox="0 0 640 640" width="640" height="640" shape-rendering="crispEdges" xmlns:c2pa="http://c2pa.org/manifest"><metadata><c2pa:manifest>AAAWgmp1bWIAAAAeanVtZGMycGEAEQAQgAAAqgA4m3EDYzJwYQAAABZcanVtYgAAAEdqdW1kYzJtYQARABCAAACqADibcQN1cm46YzJwYTo5YmI5ODk3MS05NTAyLTQ3YjQtYjkwYS02NTY3ODkzMWQyMDAAAAADl2p1bWIAAAApanVtZGMyYXMAEQAQgAAAqgA4m3EDYzJwYS5hc3NlcnRpb25zAAAAALxqdW1iAAAARGp1bWRjYm9yABEAEIAAAKoAOJtxE2MycGEuaW5ncmVkaWVudC52MwAAAAAYYzJzaB3pZGFJkJp7Y1aT7tLk9TIAAABwY2JvcqNpZGM6Zm9ybWF0bWltYWdlL3N2Zyt4bWxqaW5zdGFuY2VJRHgseG1wOmlpZDpiYzMxMzZjMS1jZmQ4LTQyMzktYTllNS1jNDEyMjU4MzJkY2FscmVsYXRpb25zaGlwaHBhcmVudE9mAAAB4mp1bWIAAABBanVtZGNib3IAEQAQgAAAqgA4m3ETYzJwYS5hY3Rpb25zLnYyAAAAABhjMnNo4XuoGmVtzF0rHPKqYBtHywAAAZljYm9yomdhY3Rpb25zgqJmYWN0aW9ua2MycGEub3BlbmVkanBhcmFtZXRlcnOha2luZ3JlZGllbnRzgaJjdXJseC1zZWxmI2p1bWJmPWMycGEuYXNzZXJ0aW9ucy9jMnBhLmluZ3JlZGllbnQudjNkaGFzaFggxo2b4spIMWf2akOq1hdU0X9UBGECcpo8AmlH60sB+3ekZmFjdGlvbngdY29tLmFudGhyb3BpYy5jbGF1ZGUucHJvdmlkZWRqcGFyYW1ldGVyc6F4H2NvbS5hbnRocm9waWMub3JpZ2luLWNvbmZpZGVuY2VndW5rbm93bmtkZXNjcmlwdGlvbnhmQ2xhdWRlIHByb3ZpZGVkIHRoaXMgZmlsZSBhdCB0aGUgcmVxdWVzdCBvZiBhIHVzZXIgYW5kIG1heSBoYXZlIGNyZWF0ZWQgb3IgbW9kaWZpZWQgdGhlIGZpbGUgY29udGVudHMubXNvZnR3YXJlQWdlbnShZG5hbWVmQ2xhdWRlcmFsbEFjdGlvbnNJbmNsdWRlZPUAAADIanVtYgAAAEBqdW1kY2JvcgARABCAAACqADibcRNjMnBhLmhhc2guZGF0YQAAAAAYYzJzaCr5Juk1s58XcPMlS0TkmlAAAACAY2JvcqVjYWxnZnNoYTI1NmNwYWRNAAAAAAAAAAAAAAAAAGRoYXNoWCAnOXUYtxBRQJprmrRBP11w6n1XSQJTJgAaQBvTyK0XA2RuYW1lbmp1bWJmIG1hbmlmZXN0amV4Y2x1c2lvbnOBomVzdGFydBizZmxlbmd0aBkeBAAAAj5qdW1iAAAAJ2p1bWRjMmNsABEAEIAAAKoAOJtxA2MycGEuY2xhaW0udjIAAAACD2Nib3KlY2FsZ2ZzaGEyNTZpc2lnbmF0dXJleE1zZWxmI2p1bWJmPS9jMnBhL3VybjpjMnBhOjliYjk4OTcxLTk1MDItNDdiNC1iOTBhLTY1Njc4OTMxZDIwMC9jMnBhLnNpZ25hdHVyZWppbnN0YW5jZUlEeCx4bXA6aWlkOjI3MDdkNTAwLWE0ZTUtNDhkYy04N2MxLTllZmFhY2JiZTczMXJjcmVhdGVkX2Fzc2VydGlvbnODomN1cmx4LXNlbGYjanVtYmY9YzJwYS5hc3NlcnRpb25zL2MycGEuaW5ncmVkaWVudC52M2RoYXNoWCDGjZviykgxZ/ZqQ6rWF1TRf1QEYQJymjwCaUfrSwH7d6JjdXJseCpzZWxmI2p1bWJmPWMycGEuYXNzZXJ0aW9ucy9jMnBhLmFjdGlvbnMudjJkaGFzaFggLXl4rF8N9aD/zwGJrkv1FwqJSw8Y3LUMGi1ahCvQyzGiY3VybHgpc2VsZiNqdW1iZj1jMnBhLmFzc2VydGlvbnMvYzJwYS5oYXNoLmRhdGFkaGFzaFggCHBREljxyt0LgYcUFXA9zHe67ZSO3RYUlxcIUGtutMF0Y2xhaW1fZ2VuZXJhdG9yX2luZm+jZG5hbWVvQW50aHJvcGljIEZpbGVzZ3ZlcnNpb25lMS4wLjBrc3BlY1ZlcnNpb25lMi40LjAAABA4anVtYgAAAChqdW1kYzJjcwARABCAAACqADibcQNjMnBhLnNpZ25hdHVyZQAAABAIY2JvctKEWQISogEmGCFZAgowggIGMIIBjaADAgECAhRA5aAK7sI50L64g/oGQgU9Z1UTADAKBggqhkjOPQQDAzBJMRcwFQYDVQQKEw5BbnRocm9waWMsIFBCQzEuMCwGA1UEAxMlQW50aHJvcGljIENvbnRlbnQgQ3JlZGVudGlhbHMgUm9vdCBDQTAeFw0yNjA4MDcxODQzNTZaFw0yODA4MDYxOTQzNTZaMEQxFzAVBgNVBAoTDkFudGhyb3BpYywgUEJDMSkwJwYDVQQDEyBBbnRocm9waWMgQ2xhdWRlIENvbnRlbnQgU2lnbmluZzBZMBMGByqGSM49AgEGCCqGSM49AwEHA0IABJh6CmvLUBgFFNU0vUKlOVtE6djd17L5SuwX0LemFisBM3dkd/3cyjxFA3Qo5S46fX0/ihY0VZ7mfb9KF703t5OjWDBWMA4GA1UdDwEB/wQEAwIHgDAVBgNVHSUEDjAMBgorBgEEAYPoXgIBMAwGA1UdEwEB/wQCMAAwHwYDVR0jBBgwFoAUzlHiBIFOZFsj+OPEz5o+nMHXXMIwCgYIKoZIzj0EAwMDZwAwZAIwMXMdFJ4BetLLVY7ORuE9noqbbAZOZn/aArXyTwFAZfKrPzxF2vPoJNf1+UCdg1XGAjBwX1zd9WGqYkqmL5SFqw1QySjr1zJfpJM9+1rdDwSPLMOPOjKuiXjoU/pUUeG9RwmhY3BhZFkNngAAAAAAAAAAAAAAAAAAAAAAAAAAAAAAAAAAAAAAAAAAAAAAAAAAAAAAAAAAAAAAAAAAAAAAAAAAAAAAAAAAAAAAAAAAAAAAAAAAAAAAAAAAAAAAAAAAAAAAAAAAAAAAAAAAAAAAAAAAAAAAAAAAAAAAAAAAAAAAAAAAAAAAAAAAAAAAAAAAAAAAAAAAAAAAAAAAAAAAAAAAAAAAAAAAAAAAAAAAAAAAAAAAAAAAAAAAAAAAAAAAAAAAAAAAAAAAAAAAAAAAAAAAAAAAAAAAAAAAAAAAAAAAAAAAAAAAAAAAAAAAAAAAAAAAAAAAAAAAAAAAAAAAAAAAAAAAAAAAAAAAAAAAAAAAAAAAAAAAAAAAAAAAAAAAAAAAAAAAAAAAAAAAAAAAAAAAAAAAAAAAAAAAAAAAAAAAAAAAAAAAAAAAAAAAAAAAAAAAAAAAAAAAAAAAAAAAAAAAAAAAAAAAAAAAAAAAAAAAAAAAAAAAAAAAAAAAAAAAAAAAAAAAAAAAAAAAAAAAAAAAAAAAAAAAAAAAAAAAAAAAAAAAAAAAAAAAAAAAAAAAAAAAAAAAAAAAAAAAAAAAAAAAAAAAAAAAAAAAAAAAAAAAAAAAAAAAAAAAAAAAAAAAAAAAAAAAAAAAAAAAAAAAAAAAAAAAAAAAAAAAAAAAAAAAAAAAAAAAAAAAAAAAAAAAAAAAAAAAAAAAAAAAAAAAAAAAAAAAAAAAAAAAAAAAAAAAAAAAAAAAAAAAAAAAAAAAAAAAAAAAAAAAAAAAAAAAAAAAAAAAAAAAAAAAAAAAAAAAAAAAAAAAAAAAAAAAAAAAAAAAAAAAAAAAAAAAAAAAAAAAAAAAAAAAAAAAAAAAAAAAAAAAAAAAAAAAAAAAAAAAAAAAAAAAAAAAAAAAAAAAAAAAAAAAAAAAAAAAAAAAAAAAAAAAAAAAAAAAAAAAAAAAAAAAAAAAAAAAAAAAAAAAAAAAAAAAAAAAAAAAAAAAAAAAAAAAAAAAAAAAAAAAAAAAAAAAAAAAAAAAAAAAAAAAAAAAAAAAAAAAAAAAAAAAAAAAAAAAAAAAAAAAAAAAAAAAAAAAAAAAAAAAAAAAAAAAAAAAAAAAAAAAAAAAAAAAAAAAAAAAAAAAAAAAAAAAAAAAAAAAAAAAAAAAAAAAAAAAAAAAAAAAAAAAAAAAAAAAAAAAAAAAAAAAAAAAAAAAAAAAAAAAAAAAAAAAAAAAAAAAAAAAAAAAAAAAAAAAAAAAAAAAAAAAAAAAAAAAAAAAAAAAAAAAAAAAAAAAAAAAAAAAAAAAAAAAAAAAAAAAAAAAAAAAAAAAAAAAAAAAAAAAAAAAAAAAAAAAAAAAAAAAAAAAAAAAAAAAAAAAAAAAAAAAAAAAAAAAAAAAAAAAAAAAAAAAAAAAAAAAAAAAAAAAAAAAAAAAAAAAAAAAAAAAAAAAAAAAAAAAAAAAAAAAAAAAAAAAAAAAAAAAAAAAAAAAAAAAAAAAAAAAAAAAAAAAAAAAAAAAAAAAAAAAAAAAAAAAAAAAAAAAAAAAAAAAAAAAAAAAAAAAAAAAAAAAAAAAAAAAAAAAAAAAAAAAAAAAAAAAAAAAAAAAAAAAAAAAAAAAAAAAAAAAAAAAAAAAAAAAAAAAAAAAAAAAAAAAAAAAAAAAAAAAAAAAAAAAAAAAAAAAAAAAAAAAAAAAAAAAAAAAAAAAAAAAAAAAAAAAAAAAAAAAAAAAAAAAAAAAAAAAAAAAAAAAAAAAAAAAAAAAAAAAAAAAAAAAAAAAAAAAAAAAAAAAAAAAAAAAAAAAAAAAAAAAAAAAAAAAAAAAAAAAAAAAAAAAAAAAAAAAAAAAAAAAAAAAAAAAAAAAAAAAAAAAAAAAAAAAAAAAAAAAAAAAAAAAAAAAAAAAAAAAAAAAAAAAAAAAAAAAAAAAAAAAAAAAAAAAAAAAAAAAAAAAAAAAAAAAAAAAAAAAAAAAAAAAAAAAAAAAAAAAAAAAAAAAAAAAAAAAAAAAAAAAAAAAAAAAAAAAAAAAAAAAAAAAAAAAAAAAAAAAAAAAAAAAAAAAAAAAAAAAAAAAAAAAAAAAAAAAAAAAAAAAAAAAAAAAAAAAAAAAAAAAAAAAAAAAAAAAAAAAAAAAAAAAAAAAAAAAAAAAAAAAAAAAAAAAAAAAAAAAAAAAAAAAAAAAAAAAAAAAAAAAAAAAAAAAAAAAAAAAAAAAAAAAAAAAAAAAAAAAAAAAAAAAAAAAAAAAAAAAAAAAAAAAAAAAAAAAAAAAAAAAAAAAAAAAAAAAAAAAAAAAAAAAAAAAAAAAAAAAAAAAAAAAAAAAAAAAAAAAAAAAAAAAAAAAAAAAAAAAAAAAAAAAAAAAAAAAAAAAAAAAAAAAAAAAAAAAAAAAAAAAAAAAAAAAAAAAAAAAAAAAAAAAAAAAAAAAAAAAAAAAAAAAAAAAAAAAAAAAAAAAAAAAAAAAAAAAAAAAAAAAAAAAAAAAAAAAAAAAAAAAAAAAAAAAAAAAAAAAAAAAAAAAAAAAAAAAAAAAAAAAAAAAAAAAAAAAAAAAAAAAAAAAAAAAAAAAAAAAAAAAAAAAAAAAAAAAAAAAAAAAAAAAAAAAAAAAAAAAAAAAAAAAAAAAAAAAAAAAAAAAAAAAAAAAAAAAAAAAAAAAAAAAAAAAAAAAAAAAAAAAAAAAAAAAAAAAAAAAAAAAAAAAAAAAAAAAAAAAAAAAAAAAAAAAAAAAAAAAAAAAAAAAAAAAAAAAAAAAAAAAAAAAAAAAAAAAAAAAAAAAAAAAAAAAAAAAAAAAAAAAAAAAAAAAAAAAAAAAAAAAAAAAAAAAAAAAAAAAAAAAAAAAAAAAAAAAAAAAAAAAAAAAAAAAAAAAAAAAAAAAAAAAAAAAAAAAAAAAAAAAAAAAAAAAAAAAAAAAAAAAAAAAAAAAAAAAAAAAAAAAAAAAAAAAAAAAAAAAAAAAAAAAAAAAAAAAAAAAAAAAAAAAAAAAAAAAAAAAAAAAAAAAAAAAAAAAAAAAAAAAAAAAAAAAAAAAAAAAAAAAAAAAAAAAAAAAAAAAAAAAAAAAAAAAAAAAAAAAAAAAAAAAAAAAAAAAAAAAAAAAAAAAAAAAAAAAAAAAAAAAAAAAAAAAAAAAAAAAAAAAAAAAAAAAAAAAAAAAAAAAAAAAAAAAAAAAAAAAAAAAAAAAAAAAAAAAAAAAAAAAAAAAAAAAAAAAAAAAAAAAAAAAAAAAAAAAAAAAAAAAAAAAAAAAAAAAAAAAAAAAAAAAAAAAAAAAAAAAAAAAAAAAAAAAAAAAAAAAAAAAAAAAAAAAAAAAAAAAAAAAAAAAAAAAAAAAAAAAAAAAAAAAAAAAAAAAAAAAAAAAAAAAAAAAAAAAAAAAAAAAAAAAAAAAAAAAAAAAAAAAAAAAAAAAAAAAAAAAAAAAAAAAAAAAAAAAAAAAAAAAAAAAAAAAAAAAAAAAAAAAAAAAAAAAAAAAAAAAAAAAAAAAAAAAAAAAAAAAAAAAAAAAAAAAAAAAAAAAAAAAAAAAAAAAAAAAAAAAAAAAAAAAAAAAAAAAAAAAAAAAAAAAAAAAAAAAAAAAAAAAAAAAAAAAAAAAAAAAAAAAAAAAAAAAAAAAAAAAAAAAAAAAAAAAAAAAAAAAAAAAAAAAAAAAAAAAAAAAAAAAAAAAAAAAAAAAAAAAAAAAAAAAAAAAAAAAAAAAAAAAAAAAAAAAAAAAAAAAAAAAAAAAAAAAAAAAAAAAAAAAAAAAAAAAAAAAAAAAAAAAAAAAAAAAAAAAAAAAAAAAAAAAAAAAAAAAAAAAAAAAAAAAAAAAAAAAAAAAAAAAAAAAAAAAAAAAAAAAAAAAAAAAAAAAAAAAAAAAAAAAAAAAAAAAAAAAAAAAAAAAAAAAAAAAAAAAAAAAAAAAAAAAAAAAAAAAAAAAAAAAAAAAAAAAAAAAAAAAAAAAAAAAAAAAAAAAAAAAAAAAAAAAAAAAAAAAAAAAAAAAAAAAAAAAAAAAAAAAAAAAAAAAAAAAAAAAAAAAAAAAAAAAAAAAAAAAAAAAAAAAAAAAAAAAAAAAAAAAAAAAAAAAAAAAAAAAAAAAAAAAAAAAAAAAAAAAAAAAAAAAAAAAAAAAAAAAAAAAAAAAAAAAAAAAAAAAAAAAAAAAAAAAAAAAAAAAAAAAAAAAAAAAAAAAAAAAAAAAAAAAAAAAAAAAAAAAAAAAAAAAAAAAAAAAAAAAAAAAAAAAAAAAAAAAAAAAAAAAAAAAAAAAAAAAAAAAAAAAAAAAAAAAAAAAAAAAAAAAAAAAAAAAAAAAAAAAAAAAAAAAAAAAAAAAAAAAAAAAAAAAAAAAAAAAAAAAAAAAAAAAAAAAAAAAAAAAAAAAAAAAAAAAAAAAAAAAAAAAAAAAAAAAAAAAAAAAAAAAAAAAAAAAAAAAAAAAAAAAAAAAAAAAAAAAAAAAAAAAAAAAAAAAAAAAAAAAAAAAAAAAAAAAAAAAAAAAAAAAAAAAAAAAAAAAAAAAAAAAAAAAAAAAAAAAAAAAAAAAAAAAAAAAAAAAAAAAAAAAAAAAAAAAAAAAAAAAAAAAAAAAAAAAAAAAAAAAAAAAAAAAAAAAAAAAAAAAAAAAAAAAAAAAAAAAAAAAAAAAAAAAAAAAAAAAAAAAAAAAAAAAAAAAAAAAAAAAAAAAAAAAAAAAAAAAAAAAAPZYQFrvqf/OgSFyB7G4XwbqLX+9kKE+wkDWzxoeInFcJxQnW8md6J0qQWu4Tr2PcubxeN9msLrbjewzYM6iNG6rk5g=</c2pa:manifest></metadata>
<g id="outline" fill="#996A83">
<rect x="200" y="60" width="20" height="20"/>
<rect x="220" y="60" width="20" height="20"/>
<rect x="240" y="60" width="20" height="20"/>
<rect x="260" y="60" width="20" height="20"/>
<rect x="280" y="60" width="20" height="20"/>
<rect x="300" y="60" width="20" height="20"/>
<rect x="320" y="60" width="20" height="20"/>
<rect x="340" y="60" width="20" height="20"/>
<rect x="360" y="60" width="20" height="20"/>
<rect x="380" y="60" width="20" height="20"/>
<rect x="400" y="60" width="20" height="20"/>
<rect x="420" y="60" width="20" height="20"/>
<rect x="160" y="80" width="20" height="20"/>
<rect x="180" y="80" width="20" height="20"/>
<rect x="220" y="80" width="20" height="20"/>
<rect x="400" y="80" width="20" height="20"/>
<rect x="440" y="80" width="20" height="20"/>
<rect x="460" y="80" width="20" height="20"/>
<rect x="140" y="100" width="20" height="20"/>
<rect x="220" y="100" width="20" height="20"/>
<rect x="400" y="100" width="20" height="20"/>
<rect x="480" y="100" width="20" height="20"/>
<rect x="120" y="120" width="20" height="20"/>
<rect x="220" y="120" width="20" height="20"/>
<rect x="400" y="120" width="20" height="20"/>
<rect x="500" y="120" width="20" height="20"/>
<rect x="100" y="140" width="20" height="20"/>
<rect x="240" y="140" width="20" height="20"/>
<rect x="380" y="140" width="20" height="20"/>
<rect x="520" y="140" width="20" height="20"/>
<rect x="80" y="160" width="20" height="20"/>
<rect x="540" y="160" width="20" height="20"/>
<rect x="60" y="180" width="20" height="20"/>
<rect x="560" y="180" width="20" height="20"/>
<rect x="40" y="200" width="20" height="20"/>
<rect x="580" y="200" width="20" height="20"/>
<rect x="40" y="220" width="20" height="20"/>
<rect x="300" y="220" width="20" height="20"/>
<rect x="580" y="220" width="20" height="20"/>
<rect x="40" y="240" width="20" height="20"/>
<rect x="300" y="240" width="20" height="20"/>
<rect x="580" y="240" width="20" height="20"/>
<rect x="40" y="260" width="20" height="20"/>
<rect x="140" y="260" width="20" height="20"/>
<rect x="300" y="260" width="20" height="20"/>
<rect x="480" y="260" width="20" height="20"/>
<rect x="580" y="260" width="20" height="20"/>
<rect x="40" y="280" width="20" height="20"/>
<rect x="140" y="280" width="20" height="20"/>
<rect x="300" y="280" width="20" height="20"/>
<rect x="480" y="280" width="20" height="20"/>
<rect x="580" y="280" width="20" height="20"/>
<rect x="40" y="300" width="20" height="20"/>
<rect x="140" y="300" width="20" height="20"/>
<rect x="300" y="300" width="20" height="20"/>
<rect x="480" y="300" width="20" height="20"/>
<rect x="580" y="300" width="20" height="20"/>
<rect x="40" y="320" width="20" height="20"/>
<rect x="140" y="320" width="20" height="20"/>
<rect x="300" y="320" width="20" height="20"/>
<rect x="480" y="320" width="20" height="20"/>
<rect x="580" y="320" width="20" height="20"/>
<rect x="40" y="340" width="20" height="20"/>
<rect x="140" y="340" width="20" height="20"/>
<rect x="300" y="340" width="20" height="20"/>
<rect x="480" y="340" width="20" height="20"/>
<rect x="580" y="340" width="20" height="20"/>
<rect x="40" y="360" width="20" height="20"/>
<rect x="140" y="360" width="20" height="20"/>
<rect x="300" y="360" width="20" height="20"/>
<rect x="480" y="360" width="20" height="20"/>
<rect x="580" y="360" width="20" height="20"/>
<rect x="40" y="380" width="20" height="20"/>
<rect x="140" y="380" width="20" height="20"/>
<rect x="300" y="380" width="20" height="20"/>
<rect x="480" y="380" width="20" height="20"/>
<rect x="580" y="380" width="20" height="20"/>
<rect x="40" y="400" width="20" height="20"/>
<rect x="60" y="400" width="20" height="20"/>
<rect x="80" y="400" width="20" height="20"/>
<rect x="100" y="400" width="20" height="20"/>
<rect x="120" y="400" width="20" height="20"/>
<rect x="140" y="400" width="20" height="20"/>
<rect x="300" y="400" width="20" height="20"/>
<rect x="480" y="400" width="20" height="20"/>
<rect x="500" y="400" width="20" height="20"/>
<rect x="520" y="400" width="20" height="20"/>
<rect x="540" y="400" width="20" height="20"/>
<rect x="560" y="400" width="20" height="20"/>
<rect x="580" y="400" width="20" height="20"/>
<rect x="40" y="420" width="20" height="20"/>
<rect x="140" y="420" width="20" height="20"/>
<rect x="300" y="420" width="20" height="20"/>
<rect x="480" y="420" width="20" height="20"/>
<rect x="580" y="420" width="20" height="20"/>
<rect x="40" y="440" width="20" height="20"/>
<rect x="140" y="440" width="20" height="20"/>
<rect x="300" y="440" width="20" height="20"/>
<rect x="480" y="440" width="20" height="20"/>
<rect x="580" y="440" width="20" height="20"/>
<rect x="40" y="460" width="20" height="20"/>
<rect x="60" y="460" width="20" height="20"/>
<rect x="80" y="460" width="20" height="20"/>
<rect x="100" y="460" width="20" height="20"/>
<rect x="120" y="460" width="20" height="20"/>
<rect x="140" y="460" width="20" height="20"/>
<rect x="300" y="460" width="20" height="20"/>
<rect x="480" y="460" width="20" height="20"/>
<rect x="500" y="460" width="20" height="20"/>
<rect x="520" y="460" width="20" height="20"/>
<rect x="540" y="460" width="20" height="20"/>
<rect x="560" y="460" width="20" height="20"/>
<rect x="580" y="460" width="20" height="20"/>
<rect x="140" y="480" width="20" height="20"/>
<rect x="300" y="480" width="20" height="20"/>
<rect x="480" y="480" width="20" height="20"/>
<rect x="140" y="500" width="20" height="20"/>
<rect x="300" y="500" width="20" height="20"/>
<rect x="480" y="500" width="20" height="20"/>
<rect x="140" y="520" width="20" height="20"/>
<rect x="300" y="520" width="20" height="20"/>
<rect x="480" y="520" width="20" height="20"/>
<rect x="140" y="540" width="20" height="20"/>
<rect x="300" y="540" width="20" height="20"/>
<rect x="480" y="540" width="20" height="20"/>
<rect x="140" y="560" width="20" height="20"/>
<rect x="160" y="560" width="20" height="20"/>
<rect x="180" y="560" width="20" height="20"/>
<rect x="200" y="560" width="20" height="20"/>
<rect x="220" y="560" width="20" height="20"/>
<rect x="240" y="560" width="20" height="20"/>
<rect x="260" y="560" width="20" height="20"/>
<rect x="280" y="560" width="20" height="20"/>
<rect x="300" y="560" width="20" height="20"/>
<rect x="320" y="560" width="20" height="20"/>
<rect x="340" y="560" width="20" height="20"/>
<rect x="360" y="560" width="20" height="20"/>
<rect x="380" y="560" width="20" height="20"/>
<rect x="400" y="560" width="20" height="20"/>
<rect x="420" y="560" width="20" height="20"/>
<rect x="440" y="560" width="20" height="20"/>
<rect x="460" y="560" width="20" height="20"/>
<rect x="480" y="560" width="20" height="20"/>
</g>
<g id="base" fill="#B27B98">
<rect x="200" y="80" width="20" height="20"/>
<rect x="420" y="80" width="20" height="20"/>
<rect x="160" y="100" width="20" height="20"/>
<rect x="180" y="100" width="20" height="20"/>
<rect x="200" y="100" width="20" height="20"/>
<rect x="420" y="100" width="20" height="20"/>
<rect x="440" y="100" width="20" height="20"/>
<rect x="460" y="100" width="20" height="20"/>
<rect x="140" y="120" width="20" height="20"/>
<rect x="160" y="120" width="20" height="20"/>
<rect x="180" y="120" width="20" height="20"/>
<rect x="200" y="120" width="20" height="20"/>
<rect x="420" y="120" width="20" height="20"/>
<rect x="440" y="120" width="20" height="20"/>
<rect x="460" y="120" width="20" height="20"/>
<rect x="480" y="120" width="20" height="20"/>
<rect x="120" y="140" width="20" height="20"/>
<rect x="140" y="140" width="20" height="20"/>
<rect x="160" y="140" width="20" height="20"/>
<rect x="180" y="140" width="20" height="20"/>
<rect x="200" y="140" width="20" height="20"/>
<rect x="220" y="140" width="20" height="20"/>
<rect x="400" y="140" width="20" height="20"/>
<rect x="420" y="140" width="20" height="20"/>
<rect x="440" y="140" width="20" height="20"/>
<rect x="460" y="140" width="20" height="20"/>
<rect x="480" y="140" width="20" height="20"/>
<rect x="500" y="140" width="20" height="20"/>
<rect x="100" y="160" width="20" height="20"/>
<rect x="120" y="160" width="20" height="20"/>
<rect x="140" y="160" width="20" height="20"/>
<rect x="160" y="160" width="20" height="20"/>
<rect x="180" y="160" width="20" height="20"/>
<rect x="200" y="160" width="20" height="20"/>
<rect x="220" y="160" width="20" height="20"/>
<rect x="240" y="160" width="20" height="20"/>
<rect x="380" y="160" width="20" height="20"/>
<rect x="400" y="160" width="20" height="20"/>
<rect x="420" y="160" width="20" height="20"/>
<rect x="440" y="160" width="20" height="20"/>
<rect x="460" y="160" width="20" height="20"/>
<rect x="480" y="160" width="20" height="20"/>
<rect x="500" y="160" width="20" height="20"/>
<rect x="520" y="160" width="20" height="20"/>
<rect x="80" y="180" width="20" height="20"/>
<rect x="100" y="180" width="20" height="20"/>
<rect x="120" y="180" width="20" height="20"/>
<rect x="140" y="180" width="20" height="20"/>
<rect x="160" y="180" width="20" height="20"/>
<rect x="180" y="180" width="20" height="20"/>
<rect x="200" y="180" width="20" height="20"/>
<rect x="220" y="180" width="20" height="20"/>
<rect x="240" y="180" width="20" height="20"/>
<rect x="260" y="180" width="20" height="20"/>
<rect x="360" y="180" width="20" height="20"/>
<rect x="380" y="180" width="20" height="20"/>
<rect x="400" y="180" width="20" height="20"/>
<rect x="420" y="180" width="20" height="20"/>
<rect x="440" y="180" width="20" height="20"/>
<rect x="460" y="180" width="20" height="20"/>
<rect x="480" y="180" width="20" height="20"/>
<rect x="500" y="180" width="20" height="20"/>
<rect x="520" y="180" width="20" height="20"/>
<rect x="540" y="180" width="20" height="20"/>
<rect x="60" y="200" width="20" height="20"/>
<rect x="80" y="200" width="20" height="20"/>
<rect x="100" y="200" width="20" height="20"/>
<rect x="120" y="200" width="20" height="20"/>
<rect x="140" y="200" width="20" height="20"/>
<rect x="160" y="200" width="20" height="20"/>
<rect x="180" y="200" width="20" height="20"/>
<rect x="200" y="200" width="20" height="20"/>
<rect x="220" y="200" width="20" height="20"/>
<rect x="240" y="200" width="20" height="20"/>
<rect x="260" y="200" width="20" height="20"/>
<rect x="280" y="200" width="20" height="20"/>
<rect x="340" y="200" width="20" height="20"/>
<rect x="360" y="200" width="20" height="20"/>
<rect x="380" y="200" width="20" height="20"/>
<rect x="400" y="200" width="20" height="20"/>
<rect x="420" y="200" width="20" height="20"/>
<rect x="440" y="200" width="20" height="20"/>
<rect x="460" y="200" width="20" height="20"/>
<rect x="480" y="200" width="20" height="20"/>
<rect x="500" y="200" width="20" height="20"/>
<rect x="520" y="200" width="20" height="20"/>
<rect x="540" y="200" width="20" height="20"/>
<rect x="560" y="200" width="20" height="20"/>
<rect x="60" y="220" width="20" height="20"/>
<rect x="80" y="220" width="20" height="20"/>
<rect x="100" y="220" width="20" height="20"/>
<rect x="120" y="220" width="20" height="20"/>
<rect x="140" y="220" width="20" height="20"/>
<rect x="160" y="220" width="20" height="20"/>
<rect x="180" y="220" width="20" height="20"/>
<rect x="200" y="220" width="20" height="20"/>
<rect x="220" y="220" width="20" height="20"/>
<rect x="240" y="220" width="20" height="20"/>
<rect x="260" y="220" width="20" height="20"/>
<rect x="280" y="220" width="20" height="20"/>
<rect x="320" y="220" width="20" height="20"/>
<rect x="340" y="220" width="20" height="20"/>
<rect x="360" y="220" width="20" height="20"/>
<rect x="380" y="220" width="20" height="20"/>
<rect x="400" y="220" width="20" height="20"/>
<rect x="420" y="220" width="20" height="20"/>
<rect x="440" y="220" width="20" height="20"/>
<rect x="460" y="220" width="20" height="20"/>
<rect x="480" y="220" width="20" height="20"/>
<rect x="500" y="220" width="20" height="20"/>
<rect x="520" y="220" width="20" height="20"/>
<rect x="540" y="220" width="20" height="20"/>
<rect x="560" y="220" width="20" height="20"/>
<rect x="60" y="240" width="20" height="20"/>
<rect x="80" y="240" width="20" height="20"/>
<rect x="100" y="240" width="20" height="20"/>
<rect x="120" y="240" width="20" height="20"/>
<rect x="140" y="240" width="20" height="20"/>
<rect x="160" y="240" width="20" height="20"/>
<rect x="180" y="240" width="20" height="20"/>
<rect x="200" y="240" width="20" height="20"/>
<rect x="220" y="240" width="20" height="20"/>
<rect x="240" y="240" width="20" height="20"/>
<rect x="260" y="240" width="20" height="20"/>
<rect x="280" y="240" width="20" height="20"/>
<rect x="320" y="240" width="20" height="20"/>
<rect x="340" y="240" width="20" height="20"/>
<rect x="360" y="240" width="20" height="20"/>
<rect x="380" y="240" width="20" height="20"/>
<rect x="400" y="240" width="20" height="20"/>
<rect x="420" y="240" width="20" height="20"/>
<rect x="440" y="240" width="20" height="20"/>
<rect x="460" y="240" width="20" height="20"/>
<rect x="480" y="240" width="20" height="20"/>
<rect x="500" y="240" width="20" height="20"/>
<rect x="520" y="240" width="20" height="20"/>
<rect x="540" y="240" width="20" height="20"/>
<rect x="560" y="240" width="20" height="20"/>
<rect x="60" y="260" width="20" height="20"/>
<rect x="80" y="260" width="20" height="20"/>
<rect x="100" y="260" width="20" height="20"/>
<rect x="120" y="260" width="20" height="20"/>
<rect x="160" y="260" width="20" height="20"/>
<rect x="180" y="260" width="20" height="20"/>
<rect x="200" y="260" width="20" height="20"/>
<rect x="220" y="260" width="20" height="20"/>
<rect x="240" y="260" width="20" height="20"/>
<rect x="260" y="260" width="20" height="20"/>
<rect x="280" y="260" width="20" height="20"/>
<rect x="320" y="260" width="20" height="20"/>
<rect x="340" y="260" width="20" height="20"/>
<rect x="360" y="260" width="20" height="20"/>
<rect x="380" y="260" width="20" height="20"/>
<rect x="400" y="260" width="20" height="20"/>
<rect x="420" y="260" width="20" height="20"/>
<rect x="440" y="260" width="20" height="20"/>
<rect x="460" y="260" width="20" height="20"/>
<rect x="500" y="260" width="20" height="20"/>
<rect x="520" y="260" width="20" height="20"/>
<rect x="540" y="260" width="20" height="20"/>
<rect x="560" y="260" width="20" height="20"/>
<rect x="60" y="280" width="20" height="20"/>
<rect x="80" y="280" width="20" height="20"/>
<rect x="100" y="280" width="20" height="20"/>
<rect x="120" y="280" width="20" height="20"/>
<rect x="160" y="280" width="20" height="20"/>
<rect x="180" y="280" width="20" height="20"/>
<rect x="200" y="280" width="20" height="20"/>
<rect x="220" y="280" width="20" height="20"/>
<rect x="240" y="280" width="20" height="20"/>
<rect x="260" y="280" width="20" height="20"/>
<rect x="280" y="280" width="20" height="20"/>
<rect x="320" y="280" width="20" height="20"/>
<rect x="360" y="280" width="20" height="20"/>
<rect x="380" y="280" width="20" height="20"/>
<rect x="400" y="280" width="20" height="20"/>
<rect x="420" y="280" width="20" height="20"/>
<rect x="440" y="280" width="20" height="20"/>
<rect x="460" y="280" width="20" height="20"/>
<rect x="500" y="280" width="20" height="20"/>
<rect x="520" y="280" width="20" height="20"/>
<rect x="540" y="280" width="20" height="20"/>
<rect x="560" y="280" width="20" height="20"/>
<rect x="60" y="300" width="20" height="20"/>
<rect x="80" y="300" width="20" height="20"/>
<rect x="100" y="300" width="20" height="20"/>
<rect x="120" y="300" width="20" height="20"/>
<rect x="160" y="300" width="20" height="20"/>
<rect x="180" y="300" width="20" height="20"/>
<rect x="200" y="300" width="20" height="20"/>
<rect x="220" y="300" width="20" height="20"/>
<rect x="240" y="300" width="20" height="20"/>
<rect x="260" y="300" width="20" height="20"/>
<rect x="280" y="300" width="20" height="20"/>
<rect x="320" y="300" width="20" height="20"/>
<rect x="340" y="300" width="20" height="20"/>
<rect x="360" y="300" width="20" height="20"/>
<rect x="380" y="300" width="20" height="20"/>
<rect x="400" y="300" width="20" height="20"/>
<rect x="420" y="300" width="20" height="20"/>
<rect x="440" y="300" width="20" height="20"/>
<rect x="460" y="300" width="20" height="20"/>
<rect x="500" y="300" width="20" height="20"/>
<rect x="520" y="300" width="20" height="20"/>
<rect x="540" y="300" width="20" height="20"/>
<rect x="560" y="300" width="20" height="20"/>
<rect x="60" y="320" width="20" height="20"/>
<rect x="80" y="320" width="20" height="20"/>
<rect x="100" y="320" width="20" height="20"/>
<rect x="120" y="320" width="20" height="20"/>
<rect x="160" y="320" width="20" height="20"/>
<rect x="180" y="320" width="20" height="20"/>
<rect x="200" y="320" width="20" height="20"/>
<rect x="220" y="320" width="20" height="20"/>
<rect x="240" y="320" width="20" height="20"/>
<rect x="260" y="320" width="20" height="20"/>
<rect x="280" y="320" width="20" height="20"/>
<rect x="320" y="320" width="20" height="20"/>
<rect x="340" y="320" width="20" height="20"/>
<rect x="360" y="320" width="20" height="20"/>
<rect x="380" y="320" width="20" height="20"/>
<rect x="400" y="320" width="20" height="20"/>
<rect x="420" y="320" width="20" height="20"/>
<rect x="440" y="320" width="20" height="20"/>
<rect x="460" y="320" width="20" height="20"/>
<rect x="500" y="320" width="20" height="20"/>
<rect x="520" y="320" width="20" height="20"/>
<rect x="540" y="320" width="20" height="20"/>
<rect x="560" y="320" width="20" height="20"/>
<rect x="60" y="340" width="20" height="20"/>
<rect x="80" y="340" width="20" height="20"/>
<rect x="100" y="340" width="20" height="20"/>
<rect x="120" y="340" width="20" height="20"/>
<rect x="160" y="340" width="20" height="20"/>
<rect x="180" y="340" width="20" height="20"/>
<rect x="200" y="340" width="20" height="20"/>
<rect x="220" y="340" width="20" height="20"/>
<rect x="240" y="340" width="20" height="20"/>
<rect x="260" y="340" width="20" height="20"/>
<rect x="280" y="340" width="20" height="20"/>
<rect x="320" y="340" width="20" height="20"/>
<rect x="340" y="340" width="20" height="20"/>
<rect x="360" y="340" width="20" height="20"/>
<rect x="380" y="340" width="20" height="20"/>
<rect x="400" y="340" width="20" height="20"/>
<rect x="420" y="340" width="20" height="20"/>
<rect x="440" y="340" width="20" height="20"/>
<rect x="460" y="340" width="20" height="20"/>
<rect x="500" y="340" width="20" height="20"/>
<rect x="520" y="340" width="20" height="20"/>
<rect x="540" y="340" width="20" height="20"/>
<rect x="560" y="340" width="20" height="20"/>
<rect x="60" y="360" width="20" height="20"/>
<rect x="80" y="360" width="20" height="20"/>
<rect x="100" y="360" width="20" height="20"/>
<rect x="120" y="360" width="20" height="20"/>
<rect x="160" y="360" width="20" height="20"/>
<rect x="180" y="360" width="20" height="20"/>
<rect x="200" y="360" width="20" height="20"/>
<rect x="220" y="360" width="20" height="20"/>
<rect x="240" y="360" width="20" height="20"/>
<rect x="260" y="360" width="20" height="20"/>
<rect x="280" y="360" width="20" height="20"/>
<rect x="320" y="360" width="20" height="20"/>
<rect x="360" y="360" width="20" height="20"/>
<rect x="380" y="360" width="20" height="20"/>
<rect x="400" y="360" width="20" height="20"/>
<rect x="420" y="360" width="20" height="20"/>
<rect x="440" y="360" width="20" height="20"/>
<rect x="460" y="360" width="20" height="20"/>
<rect x="500" y="360" width="20" height="20"/>
<rect x="520" y="360" width="20" height="20"/>
<rect x="540" y="360" width="20" height="20"/>
<rect x="560" y="360" width="20" height="20"/>
<rect x="60" y="380" width="20" height="20"/>
<rect x="80" y="380" width="20" height="20"/>
<rect x="100" y="380" width="20" height="20"/>
<rect x="120" y="380" width="20" height="20"/>
<rect x="160" y="380" width="20" height="20"/>
<rect x="180" y="380" width="20" height="20"/>
<rect x="200" y="380" width="20" height="20"/>
<rect x="220" y="380" width="20" height="20"/>
<rect x="240" y="380" width="20" height="20"/>
<rect x="260" y="380" width="20" height="20"/>
<rect x="280" y="380" width="20" height="20"/>
<rect x="320" y="380" width="20" height="20"/>
<rect x="340" y="380" width="20" height="20"/>
<rect x="360" y="380" width="20" height="20"/>
<rect x="380" y="380" width="20" height="20"/>
<rect x="400" y="380" width="20" height="20"/>
<rect x="420" y="380" width="20" height="20"/>
<rect x="440" y="380" width="20" height="20"/>
<rect x="460" y="380" width="20" height="20"/>
<rect x="500" y="380" width="20" height="20"/>
<rect x="520" y="380" width="20" height="20"/>
<rect x="540" y="380" width="20" height="20"/>
<rect x="560" y="380" width="20" height="20"/>
<rect x="160" y="400" width="20" height="20"/>
<rect x="180" y="400" width="20" height="20"/>
<rect x="200" y="400" width="20" height="20"/>
<rect x="220" y="400" width="20" height="20"/>
<rect x="240" y="400" width="20" height="20"/>
<rect x="260" y="400" width="20" height="20"/>
<rect x="280" y="400" width="20" height="20"/>
<rect x="320" y="400" width="20" height="20"/>
<rect x="340" y="400" width="20" height="20"/>
<rect x="360" y="400" width="20" height="20"/>
<rect x="380" y="400" width="20" height="20"/>
<rect x="400" y="400" width="20" height="20"/>
<rect x="420" y="400" width="20" height="20"/>
<rect x="440" y="400" width="20" height="20"/>
<rect x="460" y="400" width="20" height="20"/>
<rect x="160" y="420" width="20" height="20"/>
<rect x="180" y="420" width="20" height="20"/>
<rect x="200" y="420" width="20" height="20"/>
<rect x="220" y="420" width="20" height="20"/>
<rect x="240" y="420" width="20" height="20"/>
<rect x="260" y="420" width="20" height="20"/>
<rect x="280" y="420" width="20" height="20"/>
<rect x="320" y="420" width="20" height="20"/>
<rect x="340" y="420" width="20" height="20"/>
<rect x="360" y="420" width="20" height="20"/>
<rect x="380" y="420" width="20" height="20"/>
<rect x="400" y="420" width="20" height="20"/>
<rect x="420" y="420" width="20" height="20"/>
<rect x="440" y="420" width="20" height="20"/>
<rect x="460" y="420" width="20" height="20"/>
<rect x="160" y="440" width="20" height="20"/>
<rect x="180" y="440" width="20" height="20"/>
<rect x="200" y="440" width="20" height="20"/>
<rect x="220" y="440" width="20" height="20"/>
<rect x="240" y="440" width="20" height="20"/>
<rect x="260" y="440" width="20" height="20"/>
<rect x="280" y="440" width="20" height="20"/>
<rect x="320" y="440" width="20" height="20"/>
<rect x="360" y="440" width="20" height="20"/>
<rect x="380" y="440" width="20" height="20"/>
<rect x="400" y="440" width="20" height="20"/>
<rect x="420" y="440" width="20" height="20"/>
<rect x="440" y="440" width="20" height="20"/>
<rect x="460" y="440" width="20" height="20"/>
<rect x="160" y="460" width="20" height="20"/>
<rect x="180" y="460" width="20" height="20"/>
<rect x="200" y="460" width="20" height="20"/>
<rect x="220" y="460" width="20" height="20"/>
<rect x="240" y="460" width="20" height="20"/>
<rect x="260" y="460" width="20" height="20"/>
<rect x="280" y="460" width="20" height="20"/>
<rect x="320" y="460" width="20" height="20"/>
<rect x="340" y="460" width="20" height="20"/>
<rect x="360" y="460" width="20" height="20"/>
<rect x="380" y="460" width="20" height="20"/>
<rect x="400" y="460" width="20" height="20"/>
<rect x="420" y="460" width="20" height="20"/>
<rect x="440" y="460" width="20" height="20"/>
<rect x="460" y="460" width="20" height="20"/>
<rect x="160" y="480" width="20" height="20"/>
<rect x="180" y="480" width="20" height="20"/>
<rect x="200" y="480" width="20" height="20"/>
<rect x="220" y="480" width="20" height="20"/>
<rect x="240" y="480" width="20" height="20"/>
<rect x="260" y="480" width="20" height="20"/>
<rect x="280" y="480" width="20" height="20"/>
<rect x="320" y="480" width="20" height="20"/>
<rect x="340" y="480" width="20" height="20"/>
<rect x="360" y="480" width="20" height="20"/>
<rect x="380" y="480" width="20" height="20"/>
<rect x="400" y="480" width="20" height="20"/>
<rect x="420" y="480" width="20" height="20"/>
<rect x="440" y="480" width="20" height="20"/>
<rect x="460" y="480" width="20" height="20"/>
<rect x="160" y="500" width="20" height="20"/>
<rect x="180" y="500" width="20" height="20"/>
<rect x="200" y="500" width="20" height="20"/>
<rect x="220" y="500" width="20" height="20"/>
<rect x="240" y="500" width="20" height="20"/>
<rect x="260" y="500" width="20" height="20"/>
<rect x="280" y="500" width="20" height="20"/>
<rect x="320" y="500" width="20" height="20"/>
<rect x="340" y="500" width="20" height="20"/>
<rect x="360" y="500" width="20" height="20"/>
<rect x="380" y="500" width="20" height="20"/>
<rect x="400" y="500" width="20" height="20"/>
<rect x="420" y="500" width="20" height="20"/>
<rect x="440" y="500" width="20" height="20"/>
<rect x="460" y="500" width="20" height="20"/>
</g>
<g id="shadow" fill="#825A6F">
<rect x="240" y="80" width="20" height="20"/>
<rect x="260" y="80" width="20" height="20"/>
<rect x="280" y="80" width="20" height="20"/>
<rect x="300" y="80" width="20" height="20"/>
<rect x="320" y="80" width="20" height="20"/>
<rect x="340" y="80" width="20" height="20"/>
<rect x="360" y="80" width="20" height="20"/>
<rect x="380" y="80" width="20" height="20"/>
<rect x="240" y="100" width="20" height="20"/>
<rect x="260" y="100" width="20" height="20"/>
<rect x="280" y="100" width="20" height="20"/>
<rect x="300" y="100" width="20" height="20"/>
<rect x="320" y="100" width="20" height="20"/>
<rect x="340" y="100" width="20" height="20"/>
<rect x="360" y="100" width="20" height="20"/>
<rect x="380" y="100" width="20" height="20"/>
<rect x="240" y="120" width="20" height="20"/>
<rect x="260" y="120" width="20" height="20"/>
<rect x="280" y="120" width="20" height="20"/>
<rect x="300" y="120" width="20" height="20"/>
<rect x="320" y="120" width="20" height="20"/>
<rect x="340" y="120" width="20" height="20"/>
<rect x="360" y="120" width="20" height="20"/>
<rect x="380" y="120" width="20" height="20"/>
<rect x="260" y="140" width="20" height="20"/>
<rect x="280" y="140" width="20" height="20"/>
<rect x="300" y="140" width="20" height="20"/>
<rect x="320" y="140" width="20" height="20"/>
<rect x="340" y="140" width="20" height="20"/>
<rect x="360" y="140" width="20" height="20"/>
<rect x="260" y="160" width="20" height="20"/>
<rect x="280" y="160" width="20" height="20"/>
<rect x="300" y="160" width="20" height="20"/>
<rect x="320" y="160" width="20" height="20"/>
<rect x="340" y="160" width="20" height="20"/>
<rect x="360" y="160" width="20" height="20"/>
<rect x="280" y="180" width="20" height="20"/>
<rect x="300" y="180" width="20" height="20"/>
<rect x="320" y="180" width="20" height="20"/>
<rect x="340" y="180" width="20" height="20"/>
<rect x="300" y="200" width="20" height="20"/>
<rect x="320" y="200" width="20" height="20"/>
<rect x="340" y="280" width="20" height="20"/>
<rect x="340" y="360" width="20" height="20"/>
<rect x="60" y="420" width="20" height="20"/>
<rect x="80" y="420" width="20" height="20"/>
<rect x="100" y="420" width="20" height="20"/>
<rect x="120" y="420" width="20" height="20"/>
<rect x="500" y="420" width="20" height="20"/>
<rect x="520" y="420" width="20" height="20"/>
<rect x="540" y="420" width="20" height="20"/>
<rect x="560" y="420" width="20" height="20"/>
<rect x="60" y="440" width="20" height="20"/>
<rect x="80" y="440" width="20" height="20"/>
<rect x="100" y="440" width="20" height="20"/>
<rect x="120" y="440" width="20" height="20"/>
<rect x="340" y="440" width="20" height="20"/>
<rect x="500" y="440" width="20" height="20"/>
<rect x="520" y="440" width="20" height="20"/>
<rect x="540" y="440" width="20" height="20"/>
<rect x="560" y="440" width="20" height="20"/>
<rect x="160" y="520" width="20" height="20"/>
<rect x="180" y="520" width="20" height="20"/>
<rect x="200" y="520" width="20" height="20"/>
<rect x="220" y="520" width="20" height="20"/>
<rect x="240" y="520" width="20" height="20"/>
<rect x="260" y="520" width="20" height="20"/>
<rect x="280" y="520" width="20" height="20"/>
<rect x="320" y="520" width="20" height="20"/>
<rect x="340" y="520" width="20" height="20"/>
<rect x="360" y="520" width="20" height="20"/>
<rect x="380" y="520" width="20" height="20"/>
<rect x="400" y="520" width="20" height="20"/>
<rect x="420" y="520" width="20" height="20"/>
<rect x="440" y="520" width="20" height="20"/>
<rect x="460" y="520" width="20" height="20"/>
<rect x="160" y="540" width="20" height="20"/>
<rect x="180" y="540" width="20" height="20"/>
<rect x="200" y="540" width="20" height="20"/>
<rect x="220" y="540" width="20" height="20"/>
<rect x="240" y="540" width="20" height="20"/>
<rect x="260" y="540" width="20" height="20"/>
<rect x="280" y="540" width="20" height="20"/>
<rect x="320" y="540" width="20" height="20"/>
<rect x="340" y="540" width="20" height="20"/>
<rect x="360" y="540" width="20" height="20"/>
<rect x="380" y="540" width="20" height="20"/>
<rect x="400" y="540" width="20" height="20"/>
<rect x="420" y="540" width="20" height="20"/>
<rect x="440" y="540" width="20" height="20"/>
<rect x="460" y="540" width="20" height="20"/>
</g>
</svg>